<svg xmlns="http://www.w3.org/2000/svg" width="169" height="177" viewBox="0 0 169 177">
    <g fill="none" fill-rule="evenodd">
        <path fill="#B4B4B4" d="M157.884 89L132 74.467 142.116 73 168 87.533z"/>
        <path fill="#828282" d="M157.96 110L132 95.879 132.04 74 158 88.121z"/>
        <path fill="#FEFEFE" d="M158.04 88.407L168 87l-.04 21.593L158 110z"/>
        <path fill="#828282" d="M86.98 120L61 105.913 61.02 95 87 109.087z"/>
        <path fill="#B4B4B4" d="M86.83 109L61 94.854 81.17 92 107 106.146z"/>
        <path fill="#FEFEFE" d="M87 120l.02-11.107L107 106l-.02 11.107z"/>
        <path fill="#828282" d="M147.98 89L122 74.913 122.02 64 148 78.087z"/>
        <path fill="#B4B4B4" d="M136.83 69L111 54.854 131.17 52 157 66.146z"/>
        <path fill="#828282" d="M116.98 94L91 79.913 91.02 69 117 83.087z"/>
        <path fill="#B4B4B4" d="M106.89 96L81 81.466 91.109 80 117 94.534z"/>
        <path fill="#828282" d="M106.98 106L81 91.913 81.02 81 107 95.087zM126.96 70L101 55.879 101.04 34 127 48.121z"/>
        <path fill="#B4B4B4" d="M106.83 73L81 58.854 101.17 56 127 70.146zM76.89 100L51 85.466 61.109 84 87 98.534z"/>
        <path fill="#828282" d="M66.98 112L41 97.913 41.02 87 67 101.087zM86.96 76L61 61.879 61.04 40 87 54.121z"/>
        <path fill="#B4B4B4" d="M66.825 79L41 64.855 61.175 62 87 76.145z"/>
        <path fill="#828282" d="M55.98 102L30 87.913 30.02 77 56 91.087zM0 114.879L25.96 129l.04-21.879L.04 93z"/>
        <path fill="#B4B4B4" d="M0 92.466L25.891 107 36 105.534 10.11 91z"/>
        <path fill="#FEFEFE" d="M26 128l.04-21.594L36 105l-.04 21.594z"/>
        <path fill="#828282" d="M55.939 80L30 65.86 30.06 33 56 47.14z"/>
        <path fill="#B4B4B4" d="M56.946 48L31 33.612 112.054 22 138 36.388z"/>
        <path fill="#828282" d="M35.96 105L10 90.883 10.04 69 36 83.117z"/>
        <path fill="#B4B4B4" d="M35.83 83L10 68.854 30.17 66 56 80.146z"/>
        <path fill="#FEFEFE" d="M127.512 70.415l.041-21.989-20.325 2.864-.04 21.989 20.324-2.864zm-40.65 5.727l.041-21.99-20.334 2.865-.04 21.99 20.333-2.865zm50.813-7.158L158 66.12l-.04 21.999-10.163 1.431.02-10.994-10.163 1.431-.02 10.995-10.162 1.431-.02 10.995-20.326 2.863.02-10.994 10.163-1.432.02-10.994-40.65 5.726-.02 10.995 10.163-1.432-.02 10.995L66.466 112l.02-10.995-10.162 1.432.02-10.994-10.162 1.431-.02 10.995L36 105.3l.04-21.999 20.326-2.863.06-32.984L137.737 36l-.061 32.984z"/>
        <path fill="#828282" d="M137.98 36L112 21.913 112.02 11 138 25.087z"/>
        <path fill="#B4B4B4" d="M137.891 26L112 11.466 122.109 10 148 24.534z"/>
        <path fill="#FEFEFE" d="M147 24l-.02 10.618L137 36l.02-10.618z"/>
        <path fill="#B4B4B4" d="M111.11 0L101 1.466 126.891 16 137 14.534z"/>
        <path fill="#828282" d="M126.98 27L101 12.913 101.02 2 127 16.087z"/>
        <path fill="#FEFEFE" d="M127.02 15.382L137 14l-.02 10.617L127 26z"/>
        <path fill="#828282" d="M56.98 37L31 22.913 31.02 12 57 26.087z"/>
        <path fill="#B4B4B4" d="M56.89 26L31 11.466 41.109 10 67 24.534z"/>
        <path fill="#FEFEFE" d="M66 24l-.02 10.618L56 36l.02-10.618z"/>
        <path fill="#B4B4B4" d="M45.891 39L20 24.466 30.109 23 56 37.534z"/>
        <path fill="#828282" d="M45.98 49L20 34.913 20.02 24 46 38.087z"/>
        <path fill="#FEFEFE" d="M46.02 38.382L56 37l-.02 10.618L46 49z"/>
        <g fill="#FEFEFE">
            <path d="M38.181 160.288v13.61c0 1.632-1.306 2.83-2.939 2.83-1.74 0-2.938-1.198-2.938-2.83v-12.522c0-3.103-1.251-5.226-4.789-5.226-3.919 0-5.442 2.123-5.442 5.171v12.576c0 1.633-1.306 2.83-2.94 2.83-1.74 0-2.937-1.197-2.937-2.83v-12.521c0-3.103-1.253-5.226-4.79-5.226-4.08 0-5.442 2.395-5.442 5.607v12.14c0 1.633-1.251 2.83-2.939 2.83-1.687 0-2.939-1.197-2.939-2.83v-19.816a2.927 2.927 0 0 1 2.94-2.94 2.927 2.927 0 0 1 2.938 2.94c1.035-1.579 3.32-3.267 6.966-3.267 4.463 0 6.694 1.416 8.054 3.54 1.742-2.341 4.082-3.54 7.783-3.54 7.4 0 9.414 4.736 9.414 9.474M48.3 161.104h10.775c0-2.668-1.524-5.28-5.061-5.28-3.157 0-5.442 1.796-5.715 5.28m5.715-10.29c9.197 0 10.883 7.078 10.883 10.834 0 2.014 0 4.355-3.319 4.355H48.136c0 3.92 2.776 5.716 6.367 5.716 2.395 0 4.082-.816 5.388-1.687.598-.381 1.034-.599 1.742-.599a2.556 2.556 0 0 1 2.558 2.559c0 .87-.436 1.579-.926 2.014-.926.87-3.809 2.994-8.762 2.994-7.564 0-12.244-4.083-12.244-13.175 0-8.328 4.353-13.01 11.755-13.01M70.88 147.004a2.903 2.903 0 0 1 2.885-2.885 2.903 2.903 0 0 1 2.884 2.885v4.573h2.449a2.44 2.44 0 0 1 2.45 2.45 2.44 2.44 0 0 1-2.45 2.45h-2.449v13.174c0 1.252 1.09 1.96 2.069 1.96a2.555 2.555 0 0 1 2.558 2.558 2.556 2.556 0 0 1-2.558 2.559c-4.844 0-7.838-3.104-7.838-7.404v-12.847H69.63a2.44 2.44 0 0 1-2.449-2.45 2.44 2.44 0 0 1 2.449-2.45h1.251v-4.573zM100.321 167.201v-1.524h-6.367c-2.394 0-3.7 1.143-3.7 3.103 0 2.068 1.469 3.32 4.517 3.32 2.883 0 5.55-1.85 5.55-4.899m-10.394-9.092c-.544.381-.98.545-1.633.545a2.556 2.556 0 0 1-2.558-2.558c0-.6.218-1.253.708-1.798 1.524-1.686 4.244-3.484 8.925-3.484 6.748 0 10.776 3.322 10.776 9.092v13.937a2.904 2.904 0 0 1-2.885 2.885 2.904 2.904 0 0 1-2.884-2.885c-1.47 2.34-3.864 3.157-7.13 3.157-5.333 0-8.87-3.321-8.87-8.22 0-5.063 4.08-7.676 8.817-7.676h7.128v-.98c0-2.45-1.795-4.083-4.952-4.083-2.395 0-4.081 1.088-5.442 2.068M111.148 173.19c0-2.45 1.306-3.649 3.592-3.649 2.285 0 3.537 1.199 3.537 3.648 0 2.395-1.252 3.539-3.537 3.539-2.286 0-3.592-1.144-3.592-3.539M129.16 154.081v12.684c0 2.504.87 4.9 4.898 4.9 3.973 0 4.844-2.396 4.844-4.9v-12.684a2.927 2.927 0 0 1 2.939-2.94 2.926 2.926 0 0 1 2.937 2.94v12.684c0 5.335-2.013 10.235-10.72 10.235-8.762 0-10.776-4.9-10.776-10.235v-12.684a2.927 2.927 0 0 1 2.94-2.94 2.927 2.927 0 0 1 2.938 2.94M155.496 158c0 4.03 13.388 2.178 13.388 11.161 0 5.116-4.354 7.73-9.96 7.73-4.68 0-8.272-2.123-9.632-3.811-.435-.544-.653-1.035-.653-1.688 0-1.415 1.198-2.612 2.612-2.612.545 0 1.089.163 1.687.653 1.47 1.197 3.266 2.232 5.987 2.232 2.448 0 4.026-.653 4.026-2.178 0-4.41-13.333-2.123-13.333-11.378 0-4.899 4.083-7.295 9.09-7.295 3.863 0 7.292 1.47 8.815 3.376.327.435.544.816.544 1.634 0 1.414-1.197 2.612-2.612 2.612-.762 0-1.252-.327-1.85-.762-1.198-.87-2.666-1.742-4.898-1.742-2.014 0-3.21.708-3.21 2.069"/>
        </g>
    </g>
</svg>
